HIERARCHY
ROOT joint_Root
{
	OFFSET 0.0 0.0 0.0
	CHANNELS 6 Xposition Yposition Zposition Zrotation Xrotation Yrotation 
	JOINT Hips
	{
		OFFSET -0.726466 93.3139 -2.00062
		CHANNELS 6 Xposition Yposition Zposition Zrotation Xrotation Yrotation 
		JOINT Spine
		{
			OFFSET 15.7357 0.0 0.0
			CHANNELS 6 Xposition Yposition Zposition Zrotation Xrotation Yrotation 
			JOINT Chest
			{
				OFFSET 8.98455 -0.406207 0.0
				CHANNELS 6 Xposition Yposition Zposition Zrotation Xrotation Yrotation 
				JOINT Neck
				{
					OFFSET 16.3773 0.0 0.0
					CHANNELS 6 Xposition Yposition Zposition Zrotation Xrotation Yrotation 
					JOINT Head
					{
						OFFSET 6.45672 0.0 0.0
						CHANNELS 6 Xposition Yposition Zposition Zrotation Xrotation Yrotation 
						End Site
						{
							OFFSET 0.0 0.0 0.0
						}
					}
				}
				JOINT Shoulder_L
				{
					OFFSET 12.9942 -0.242716 4.98039
					CHANNELS 6 Xposition Yposition Zposition Zrotation Xrotation Yrotation 
					JOINT UpperArm_L
					{
						OFFSET 5.34809 0.0 0.0
						CHANNELS 6 Xposition Yposition Zposition Zrotation Xrotation Yrotation 
						JOINT LowerArm_L
						{
							OFFSET 24.3286 1.87007e-05 0.0
							CHANNELS 6 Xposition Yposition Zposition Zrotation Xrotation Yrotation 
							JOINT Hand_L
							{
								OFFSET 22.2916 0.0 0.0
								CHANNELS 6 Xposition Yposition Zposition Zrotation Xrotation Yrotation 
								End Site
								{
									OFFSET 0.0 0.0 0.0
								}
							}
						}
					}
				}
				JOINT Shoulder_R
				{
					OFFSET 12.9945 -0.242716 -4.98039
					CHANNELS 6 Xposition Yposition Zposition Zrotation Xrotation Yrotation 
					JOINT UpperArm_R
					{
						OFFSET -5.34813 0.0 0.0
						CHANNELS 6 Xposition Yposition Zposition Zrotation Xrotation Yrotation 
						JOINT LowerArm_R
						{
							OFFSET -24.3289 0.000322201 0.0
							CHANNELS 6 Xposition Yposition Zposition Zrotation Xrotation Yrotation 
							JOINT Hand_R
							{
								OFFSET -22.2915 -0.000108084 0.0
								CHANNELS 6 Xposition Yposition Zposition Zrotation Xrotation Yrotation 
								End Site
								{
									OFFSET 0.0 0.0 0.0
								}
							}
						}
					}
				}
			}
		}
		JOINT UpperLeg_L
		{
			OFFSET -2.19248 -6.46944 0.0
			CHANNELS 6 Xposition Yposition Zposition Zrotation Xrotation Yrotation 
			JOINT LowerLeg_L
			{
				OFFSET 39.0811 0.0 -1.23785e-05
				CHANNELS 6 Xposition Yposition Zposition Zrotation Xrotation Yrotation 
				JOINT Foot_L
				{
					OFFSET 40.9854 0.0 -1.26872e-05
					CHANNELS 6 Xposition Yposition Zposition Zrotation Xrotation Yrotation 
					JOINT Toes_L
					{
						OFFSET 11.7543 0.0 0.0
						CHANNELS 6 Xposition Yposition Zposition Zrotation Xrotation Yrotation 
						End Site
						{
							OFFSET 0.0 0.0 0.0
						}
					}
				}
			}
		}
		JOINT UpperLeg_R
		{
			OFFSET -2.19251 6.46944 0.0
			CHANNELS 6 Xposition Yposition Zposition Zrotation Xrotation Yrotation 
			JOINT LowerLeg_R
			{
				OFFSET -39.0811 -0.00228153 -0.0401928
				CHANNELS 6 Xposition Yposition Zposition Zrotation Xrotation Yrotation 
				JOINT Foot_R
				{
					OFFSET -40.9854 0.0 0.0
					CHANNELS 6 Xposition Yposition Zposition Zrotation Xrotation Yrotation 
					JOINT Toes_R
					{
						OFFSET -11.7543 0.0 0.0
						CHANNELS 6 Xposition Yposition Zposition Zrotation Xrotation Yrotation 
						End Site
						{
							OFFSET 0.0 0.0 0.0
						}
					}
				}
			}
		}
	}
}
MOTION
Frames:	9
Frame Time:	0.0333333
0.000000 0.000000 0.000000 0.000000 0.000000 -0.000000 -0.877767 92.113500 0.337445 87.994700 -0.696526 5.515630 15.735700 0.000005 -0.000001 84.516700 84.874100 -83.740100 8.984550 -0.406207 -0.000000 2.446610 -1.014890 1.573290 16.377300 -0.000001 -0.000001 4.405540 -3.012660 0.923388 6.456720 -0.000001 -0.000000 8.107680 -3.332980 -2.514260 12.994200 -0.242716 4.980390 -89.887400 -0.359737 -72.617300 5.348090 -0.000007 -0.000001 -69.097500 40.435200 -14.232200 24.328600 0.000019 0.000005 1.441860 3.604470 -21.818900 22.291600 -0.000001 0.000005 5.490940 5.465220 -5.192740 12.994500 -0.242716 -4.980390 88.383300 5.194390 -72.685600 -5.348130 -0.000001 -0.000004 -62.638800 41.693400 -19.056900 -24.328900 0.000322 -0.000009 2.158520 6.127550 -19.456600 -22.291500 -0.000108 -0.000004 8.363080 5.297970 0.132085 -2.192480 -6.469440 -0.000000 -174.677000 -8.871280 -0.892362 39.081100 -0.000007 -0.000012 -0.123756 0.282181 23.680900 40.985400 -0.000006 -0.000013 -0.204546 4.411110 -67.326500 11.754300 -0.000000 0.000003 -0.000065 -0.000711 -16.605100 -2.192510 6.469440 -0.000001 179.121000 15.868900 -177.903000 -39.081100 -0.002282 -0.040193 -0.061830 0.180333 19.864100 -40.985400 0.000008 0.000006 2.836380 8.352510 -66.692700 -11.754300 -0.000006 -0.000006 -0.007149 -0.080938 -19.868200
0.000000 0.000000 0.000000 0.000000 0.000000 -0.000000 -0.854766 92.115800 0.312452 87.997600 -0.732100 5.551530 15.735700 0.000005 -0.000001 84.638500 84.857600 -83.888700 8.984550 -0.406207 -0.000000 2.481130 -0.994798 1.519640 16.377300 -0.000001 -0.000001 4.302450 -3.005340 0.828735 6.456720 -0.000001 -0.000000 8.053900 -3.295890 -2.573950 12.994200 -0.242716 4.980390 -89.874200 -0.401121 -72.592100 5.348090 -0.000007 -0.000001 -69.294300 40.141500 -13.952400 24.328600 0.000019 0.000005 1.488070 3.736590 -21.732300 22.291600 -0.000001 0.000005 5.472840 5.462770 -5.102440 12.994500 -0.242716 -4.980390 88.333200 5.298510 -72.509900 -5.348130 -0.000001 -0.000004 -60.438400 42.544300 -20.207100 -24.328900 0.000322 -0.000009 2.717700 6.588500 -22.480100 -22.291500 -0.000108 -0.000004 5.956990 5.294280 0.232615 -2.192480 -6.469440 -0.000000 -174.682000 -8.957720 -0.869046 39.081100 -0.000007 -0.000012 -0.123369 0.281280 23.682300 40.985400 -0.000006 -0.000013 -0.184582 4.424090 -67.311700 11.754300 -0.000000 0.000003 -0.000051 -0.000573 -16.599800 -2.192510 6.469440 -0.000001 179.120000 15.746100 -177.900000 -39.081100 -0.002282 -0.040193 -0.060403 0.176253 19.877700 -40.985400 0.000008 0.000006 2.830130 8.305450 -66.674900 -11.754300 -0.000006 -0.000006 -0.007292 -0.082154 -19.917800
0.000000 0.000000 0.000000 0.000000 0.000000 -0.000000 -0.822601 92.129900 0.257947 88.000000 -0.799201 5.509780 15.735700 0.000005 -0.000001 84.123600 84.862100 -83.383300 8.984550 -0.406207 -0.000000 2.463510 -1.085450 1.502490 16.377300 -0.000001 -0.000001 4.253400 -2.930960 0.708437 6.456720 -0.000001 -0.000000 7.905860 -3.144530 -2.796490 12.994200 -0.242716 4.980390 -89.862500 -0.437022 -72.531100 5.348090 -0.000007 -0.000001 -69.609400 39.838900 -13.508100 24.328600 0.000019 0.000005 1.487030 3.740810 -21.696400 22.291600 -0.000001 0.000005 5.597160 5.461570 -5.058470 12.994500 -0.242716 -4.980390 88.275600 5.362250 -72.143600 -5.348130 -0.000001 -0.000004 -57.029700 42.576300 -22.440200 -24.328900 0.000322 -0.000009 3.444900 6.852330 -26.778600 -22.291500 -0.000108 -0.000004 4.064070 5.296850 0.160899 -2.192480 -6.469440 -0.000000 -174.707000 -9.019310 -0.901952 39.081100 -0.000007 -0.000012 -0.122138 0.279364 23.615200 40.985400 -0.000006 -0.000013 -0.155846 4.461220 -67.253000 11.754300 -0.000000 0.000003 -0.000065 -0.000711 -16.605100 -2.192510 6.469440 -0.000001 179.159000 15.604900 -177.982000 -39.081100 -0.002282 -0.040193 -0.057417 0.168264 19.848100 -40.985400 0.000008 0.000006 2.903230 8.208950 -66.625100 -11.754300 -0.000006 -0.000006 -0.007298 -0.082198 -19.919600
0.000000 0.000000 0.000000 0.000000 0.000000 -0.000000 -0.765397 92.131300 0.191032 88.011000 -0.943689 5.480060 15.735700 0.000005 -0.000001 83.390200 84.865900 -82.662200 8.984550 -0.406207 -0.000000 2.442590 -1.214820 1.480390 16.377300 -0.000001 -0.000001 4.241310 -2.895780 0.641070 6.456720 -0.000001 -0.000000 7.867540 -2.886330 -3.181190 12.994200 -0.242716 4.980390 -89.842200 -0.501057 -72.519000 5.348090 -0.000007 -0.000001 -70.001100 39.443900 -13.039300 24.328600 0.000019 0.000005 1.535220 3.890480 -21.553800 22.291600 -0.000001 0.000005 5.515530 5.458570 -4.948450 12.994500 -0.242716 -4.980390 88.277300 5.216220 -71.695400 -5.348130 -0.000001 -0.000004 -52.190300 41.877500 -26.114300 -24.328900 0.000322 -0.000009 4.270190 6.802450 -32.230000 -22.291500 -0.000108 -0.000004 3.209620 5.292850 0.272728 -2.192480 -6.469440 -0.000000 -174.748000 -9.223070 -0.977041 39.081100 -0.000007 -0.000012 -0.121335 0.277093 23.647900 40.985400 -0.000006 -0.000013 -0.106340 4.471950 -67.232400 11.754300 -0.000000 0.000003 -0.000057 -0.000633 -16.602100 -2.192510 6.469440 -0.000001 179.130000 15.442300 -178.110000 -39.081100 -0.002282 -0.040193 -0.063086 0.183549 19.890000 -40.985400 0.000008 0.000006 2.675030 8.201600 -66.530400 -11.754300 -0.000006 -0.000006 -0.007363 -0.082751 -19.942200
0.000000 0.000000 0.000000 0.000000 0.000000 -0.000000 -0.680818 92.150500 0.106842 87.996900 -1.142210 5.497910 15.735700 0.000005 -0.000001 82.620000 84.882800 -81.908000 8.984550 -0.406207 -0.000000 2.392950 -1.346950 1.450810 16.377300 -0.000001 -0.000001 4.348630 -2.849410 0.671842 6.456720 -0.000001 -0.000000 7.887090 -2.662330 -3.597510 12.994200 -0.242716 4.980390 -89.837100 -0.516469 -72.491700 5.348090 -0.000007 -0.000001 -70.259900 39.186200 -12.680500 24.328600 0.000019 0.000005 1.583970 4.083280 -21.222800 22.291600 -0.000001 0.000005 5.451280 5.455310 -4.830590 12.994500 -0.242716 -4.980390 88.351000 4.832370 -71.132100 -5.348130 -0.000001 -0.000004 -46.987600 39.435800 -30.544800 -24.328900 0.000322 -0.000009 5.689150 7.221360 -38.400900 -22.291500 -0.000108 -0.000004 2.827950 5.291480 0.310165 -2.192480 -6.469440 -0.000000 -174.789000 -9.355600 -0.956682 39.081100 -0.000007 -0.000012 -0.119547 0.273889 23.580400 40.985400 -0.000006 -0.000013 -0.065700 4.379060 -67.161000 11.754300 -0.000000 0.000003 -0.000064 -0.000701 -16.604700 -2.192510 6.469440 -0.000001 179.123000 15.290500 -178.142000 -39.081100 -0.002282 -0.040193 -0.060628 0.177331 19.830600 -40.985400 0.000008 0.000006 2.702660 8.253160 -66.425300 -11.754300 -0.000006 -0.000006 -0.007255 -0.081838 -19.904900
0.000000 0.000000 0.000000 0.000000 0.000000 -0.000000 -0.598845 92.151900 0.056097 87.967400 -1.458400 5.545160 15.735700 0.000005 -0.000001 82.336400 84.894300 -81.653800 8.984550 -0.406207 -0.000000 2.363560 -1.392890 1.392710 16.377300 -0.000001 -0.000001 4.524770 -2.829820 0.798432 6.456720 -0.000001 -0.000000 7.908470 -2.554440 -3.987940 12.994200 -0.242716 4.980390 -89.835100 -0.520652 -72.419700 5.348090 -0.000007 -0.000001 -70.426800 38.916300 -12.524700 24.328600 0.000019 0.000005 1.706250 4.501410 -20.784000 22.291600 -0.000001 0.000005 5.558000 5.452760 -4.738370 12.994500 -0.242716 -4.980390 88.495900 4.302390 -70.709800 -5.348130 -0.000001 -0.000004 -41.562400 35.410100 -35.268300 -24.328900 0.000322 -0.000009 6.975080 6.996560 -45.128900 -22.291500 -0.000108 -0.000004 3.702830 5.283530 0.528245 -2.192480 -6.469440 -0.000000 -174.813000 -9.514440 -0.913844 39.081100 -0.000007 -0.000012 -0.117151 0.267945 23.616000 40.985400 -0.000006 -0.000013 -0.035247 4.208230 -67.178100 11.754300 -0.000000 0.000003 -0.000069 -0.000750 -16.606500 -2.192510 6.469440 -0.000001 179.093000 15.059300 -178.168000 -39.081100 -0.002282 -0.040193 -0.064320 0.187515 19.835700 -40.985400 0.000008 0.000006 2.507200 8.375210 -66.319100 -11.754300 -0.000006 -0.000006 -0.007107 -0.080576 -19.853400
0.000000 0.000000 0.000000 0.000000 0.000000 -0.000000 -0.508406 92.158900 -0.027502 87.931400 -1.720440 5.587730 15.735700 0.000005 -0.000001 82.461700 84.921500 -81.811500 8.984550 -0.406207 -0.000000 2.311930 -1.362430 1.326510 16.377300 -0.000001 -0.000001 4.687070 -2.827660 0.914219 6.456720 -0.000001 -0.000000 7.995780 -2.636780 -4.226520 12.994200 -0.242716 4.980390 -89.840400 -0.501686 -72.346000 5.348090 -0.000007 -0.000001 -70.476400 38.732800 -12.563900 24.328600 0.000019 0.000005 1.736380 4.680670 -20.379500 22.291600 -0.000001 0.000005 5.662690 5.449780 -4.631780 12.994500 -0.242716 -4.980390 88.669900 3.757450 -70.490100 -5.348130 -0.000001 -0.000004 -36.070000 29.659400 -39.606200 -24.328900 0.000322 -0.000009 7.680770 5.979860 -52.320400 -22.291500 -0.000108 -0.000004 5.087080 5.264700 1.039160 -2.192480 -6.469440 -0.000000 -174.842000 -9.552660 -0.897916 39.081100 -0.000007 -0.000012 -0.117282 0.267999 23.635400 40.985400 -0.000006 -0.000013 -0.012523 4.019680 -67.164400 11.754300 -0.000000 0.000003 -0.000054 -0.000607 -16.601100 -2.192510 6.469440 -0.000001 179.086000 14.898500 -178.203000 -39.081100 -0.002282 -0.040193 -0.062534 0.182539 19.838200 -40.985400 0.000008 0.000006 2.490810 8.489890 -66.237700 -11.754300 -0.000006 -0.000006 -0.007342 -0.082571 -19.934800
0.000000 0.000000 0.000000 0.000000 0.000000 -0.000000 -0.421838 92.158700 -0.083184 87.888500 -1.871970 5.653670 15.735700 0.000005 -0.000001 83.051800 84.940700 -82.424800 8.984550 -0.406207 -0.000000 2.285970 -1.253130 1.277690 16.377300 -0.000001 -0.000001 4.780550 -2.835300 1.024860 6.456720 -0.000001 -0.000000 8.054930 -2.772250 -4.428980 12.994200 -0.242716 4.980390 -89.834600 -0.516424 -72.243700 5.348090 -0.000007 -0.000001 -70.463900 38.620100 -12.784300 24.328600 0.000019 0.000005 1.751610 4.777830 -20.160300 22.291600 -0.000001 0.000005 5.730710 5.450070 -4.642230 12.994500 -0.242716 -4.980390 88.808600 3.347480 -70.395500 -5.348130 -0.000001 -0.000004 -30.665300 22.030600 -43.252100 -24.328900 0.000322 -0.000009 9.029800 5.403920 -59.349500 -22.291500 -0.000108 -0.000004 6.399210 5.252770 1.359270 -2.192480 -6.469440 -0.000000 -174.858000 -9.631210 -0.887950 39.081100 -0.000007 -0.000012 -0.115656 0.263361 23.708900 40.985400 -0.000006 -0.000013 0.033336 3.898140 -67.179600 11.754300 -0.000000 0.000003 -0.000058 -0.000644 -16.602500 -2.192510 6.469440 -0.000001 179.041000 14.863900 -178.189000 -39.081100 -0.002282 -0.040193 -0.064347 0.187590 19.835700 -40.985400 0.000008 0.000006 2.342970 8.652720 -66.147600 -11.754300 -0.000006 -0.000006 -0.006986 -0.079546 -19.811400
0.000000 0.000000 0.000000 0.000000 0.000000 -0.000000 -0.334773 92.163200 -0.128407 87.901200 -1.747490 5.692710 15.735700 0.000005 -0.000001 83.435000 84.952600 -82.844100 8.984550 -0.406207 -0.000000 2.269340 -1.181620 1.204120 16.377300 -0.000001 -0.000001 4.793940 -2.839180 1.070120 6.456720 -0.000001 -0.000000 8.058880 -2.922030 -4.591770 12.994200 -0.242716 4.980390 -89.838700 -0.499706 -72.111900 5.348090 -0.000007 -0.000001 -70.212100 38.674400 -13.133500 24.328600 0.000019 0.000005 1.755260 4.725150 -20.405100 22.291600 -0.000001 0.000005 5.767120 5.451160 -4.681260 12.994500 -0.242716 -4.980390 88.980300 2.865640 -70.402900 -5.348130 -0.000001 -0.000004 -26.420500 12.694200 -45.982300 -24.328900 0.000322 -0.000009 10.524300 5.048660 -64.654400 -22.291500 -0.000108 -0.000004 8.108900 5.263320 1.082250 -2.192480 -6.469440 -0.000000 -174.950000 -9.511690 -0.911899 39.081100 -0.000007 -0.000012 -0.113338 0.257952 23.719600 40.985400 -0.000006 -0.000013 0.101018 3.891210 -67.150100 11.754300 -0.000000 0.000003 -0.000054 -0.000607 -16.601100 -2.192510 6.469440 -0.000001 178.951000 15.029200 -178.186000 -39.081100 -0.002282 -0.040193 -0.064092 0.186611 19.862400 -40.985400 0.000008 0.000006 2.373930 8.675670 -66.134700 -11.754300 -0.000006 -0.000006 -0.007025 -0.079875 -19.824800
